<?xml version="1.0" standalone="no"?><!DOCTYPE svg PUBLIC "-//W3C//DTD SVG 1.1//EN" "http://www.w3.org/Graphics/SVG/1.1/DTD/svg11.dtd"><svg t="1763090357276" class="icon" viewBox="0 0 1237 1024" version="1.1" xmlns="http://www.w3.org/2000/svg" p-id="6198" xmlns:xlink="http://www.w3.org/1999/xlink" width="154.625" height="128"><path d="M1089.415233 837.818182H125.798526c-12.579853 0-22.643735 5.031941-30.191646 12.579852-5.031941 7.547912-5.031941 17.611794 0 25.159706 5.031941 7.547912 17.611794 12.579853 30.191646 12.579852h963.616707c12.579853 0 22.643735-5.031941 30.191647-12.579852 5.031941-7.547912 5.031941-17.611794 0-25.159706-7.547912-7.547912-20.127764-12.579853-30.191647-12.579852z m-103.154791 125.798526H226.437346c-12.579853 0-22.643735 5.031941-30.191646 12.579852-5.031941 7.547912-5.031941 17.611794 0 25.159705 5.031941 7.547912 17.611794 12.579853 30.191646 12.579853h762.339067c12.579853 0 22.643735-5.031941 30.191646-12.579853 5.031941-7.547912 5.031941-17.611794 0-25.159705-7.547912-7.547912-20.127764-12.579853-32.707617-12.579852z m105.670762-374.879607c2.515971 0 5.031941 2.515971 10.063882 2.51597 10.063882 0 22.643735-5.031941 27.675676-15.095823 45.287469-60.383292 67.931204-133.346437 67.931204-208.825553C1197.601966 168.570025 1034.063882 7.547912 835.302211 7.547912 691.891892 7.547912 561.061425 93.090909 503.194103 223.921376L450.358722 150.958231c-7.547912-10.063882-17.611794-15.095823-30.191646-15.095823s-22.643735 7.547912-27.675676 15.095823L45.287469 701.955774c-10.063882 15.095823-5.031941 37.739558 10.063882 47.80344 15.095823 10.063882 37.739558-20.127764 47.80344-35.223587l319.528256-503.194104 317.012285 437.77887c5.031941 7.547912 15.095823 15.095823 27.675675 15.095823 10.063882 0 20.127764-5.031941 27.675676-12.579852l145.92629-171.085995 181.149877 239.017199c12.579853 15.095823 32.707617 42.771499 47.80344 32.707616 15.095823-10.063882 17.611794-32.707617 7.547911-47.80344l-85.542997-115.734643z m-25.159705-32.707617l-100.638821-130.830467c-7.547912-7.547912-15.095823-12.579853-27.675676-12.579852-10.063882 0-20.127764 5.031941-27.675675 12.579852l-143.41032 171.085995-226.437346-311.980344c7.547912-2.515971-10.063882-17.611794-5.031941-27.675675 47.80344-118.250614 163.538084-196.2457 294.36855-196.245701 173.601966 0 314.496314 135.862408 317.012285 304.432433 0 62.899263-20.127764 125.798526-60.383292 178.633906-2.515971 5.031941-20.127764 5.031941-20.127764 12.579853z" fill="#71bf0e" p-id="6199"></path></svg>